<?xml version="1.0" encoding="utf-8"?>
<!-- Generator: Adobe Illustrator 22.0.1, SVG Export Plug-In . SVG Version: 6.00 Build 0)  -->
<svg version="1.1" id="Layer_1" xmlns="http://www.w3.org/2000/svg" xmlns:xlink="http://www.w3.org/1999/xlink" x="0px" y="0px"
	 viewBox="0 0 629.7 420.6" style="enable-background:new 0 0 629.7 420.6;" xml:space="preserve">
<style type="text/css">
	.st0{fill:#FF6464;}
	.st1{fill:#FFC5C5;}
	.st2{fill:#C6C6C6;}
	.st3{fill:#543C3C;}
	.st4{fill:#3F2D2D;}
	.st5{opacity:0.2;enable-background:new    ;}
	.st6{fill:#FFB6B6;}
	.st7{fill:#A0616A;}
	.st8{fill:none;stroke:#FF6464;stroke-miterlimit:10;}
</style>
<circle class="st0" cx="318" cy="52" r="19.5"/>
<path class="st1" d="M361.6,42.8c-1.1-3.6-4.3-6.3-8.2-6.8c-0.1,0-0.1,0-0.2,0c-0.1,0-0.1,0-0.2-0.1c-6.5-0.9-13.8,1.3-18.7,5.7
	c-1.8,1.6-3.2,3.6-4.2,5.9c-1.8-2.4-4.8-4-7.9-3.9c-4,0.3-7.5,3.1-8.6,6.9c-0.2,0.5,0.1,1,0.5,1.3c0.5,0.5,1.4,0.9,2.1,1
	c1.6,0.4,3.2,0.6,4.9,1c3.2,0.5,6.3,1,9.7,1.4c2.1,0.2,4.2,0.5,6.4,0.5c4.4,0.3,8.8,0.4,13.3,0.2c2.2-0.1,4.3-0.2,6.3-1.1
	c1.4-0.7,2.7-1.8,3.6-3.2C362,49,362.5,45.8,361.6,42.8z"/>
<path class="st1" d="M321.5,71.1c-0.1-0.8-0.2-1.6-0.5-2.4c-1.1-3.6-4.3-6.3-8.2-6.8c-0.1,0-0.1,0-0.2,0c-0.1,0-0.2,0-0.2-0.1
	c-3.6-0.5-7.3-0.1-10.7,1.1c-5.3,1.7-9.9,5.3-12.2,10.5c-1.8-2.4-4.8-4-7.9-3.9c-4,0.3-7.5,3.1-8.6,6.9c-0.2,0.5,0.1,1,0.5,1.3
	c0.5,0.5,1.4,0.9,2.1,1c1.6,0.4,3.2,0.6,4.9,1c3.2,0.5,6.3,1,9.6,1.4c6.5,0.7,13.1,1,19.7,0.7c2.2-0.1,4.3-0.2,6.3-1.1
	c1.4-0.7,2.7-1.8,3.6-3.2C320.9,75.7,321.7,73.5,321.5,71.1z"/>
<path class="st2" d="M536.9,348.3h-75.5c-0.5-6-0.4-12.1,0.1-18.1c3-37.3,23.3-72.8,54-94.3c-4,13.9-1.9,27.8,2.2,41.7
	c-0.5,0.2-1.2,0.4-1.7,0.5c-4.2,1.5-7.9,3.9-11.2,6.9c-0.9,0.9-1.8,2.1-1.4,3.2c0.5,1,1.6,1.4,2.7,1.5c2.5,0.5,5.1,1,7.7,1.4
	c2.1,0.5,4.1,0.8,6.1,1.2c1,0.2,1.9,0.4,2.9,0.5c0.2,0.3,0.2,0.6,0.4,1c4.8,13.2,10,26.4,12.4,39.9c0.5,3.3,1,6.8,1.3,10.2
	C536.8,345.4,536.9,346.8,536.9,348.3z"/>
<path class="st2" d="M192.9,298.9c-12.8,7.9-20.9,19.9-27.6,33.4c-5.8,1.4-11.2,4.2-15.4,8.2c-1,0.9-1.9,2.1-1.4,3.2
	c0.5,1,1.6,1.4,2.7,1.5c2.5,0.5,5.1,1,7.7,1.4c-0.2,0.5-0.5,1.2-0.7,1.7H73.2c3.9-5.1,8.1-10.1,12.8-14.5c1-1,2.1-2,3.1-2.9
	c10.8-9.7,23.2-17.6,36.6-23.1C146.8,298.8,170.1,295.8,192.9,298.9z"/>
<path class="st1" d="M368.1,316.6l67.4,6l0.7,0.1V34.9c-0.2-0.2-0.5-0.4-0.7-0.5c-14.1-9.8-29.2-17.9-45.2-24l-3.5,47.5l-0.3,4.4
	l-3.4,47.1l-1,14.5l-13.8,191L368.1,316.6z"/>
<path class="st1" d="M201.4,29.6c-0.5,0.3-1,0.5-1.4,1v292.1l1.4-0.2l66.7-6l-0.2-1.7l-13.8-191l-1-14.5l-3.4-47.1l-0.3-4.4
	l-3.6-49.8C230.2,13.4,215.3,20.7,201.4,29.6z"/>
<path class="st1" d="M200,30.6c-1,0.6-2,1.3-2.9,1.9v294.1c0,7.4,4.4,13.5,10.2,15.1c1,0.3,1.9,0.4,2.9,0.4h216.6c1,0,2-0.2,2.9-0.4
	c2.2-0.5,4.2-1.7,5.7-3.4c3-3.2,4.6-7.4,4.5-11.6V37.5c-1.2-0.9-2.4-1.7-3.6-2.6c-0.2-0.2-0.5-0.4-0.7-0.5v292.2
	c0,1-0.2,1.9-0.4,2.8c-1,4.4-4.4,7.5-8.4,7.5H210.2c-4.8,0-8.8-4.6-8.8-10.4V29.5C201,29.9,200.5,30.2,200,30.6z"/>
<rect x="199.3" y="57.9" class="st1" width="238.5" height="4.4"/>
<path class="st1" d="M364.7,2.4c-1.4-0.4-2.9-0.6-4.4-1v118.1h4.4V2.4z"/>
<path class="st1" d="M276.6,0c-1.4,0.3-2.9,0.5-4.4,0.9v118.7h4.4V0z"/>
<path class="st1" d="M152.5,334.5c0,2.4,0.5,5,1.4,7.3c0.4,0.9,0.8,1.7,1.4,2.6c0.6,1.1,1.4,2.1,2.2,3.1c3.7,4.2,9,6.7,14.7,6.7
	h285.7c10.8,0,19.6-8.8,19.6-19.6s-8.8-19.6-19.6-19.6H172.1C161.4,314.9,152.5,323.7,152.5,334.5z"/>
<rect x="199.3" y="109.4" class="st1" width="237.1" height="14.5"/>
<path class="st1" d="M328,113h-20.3l0,0l0,0c0-4.4,3.6-7.9,7.9-7.9h4.4C324.4,105.1,328,108.7,328,113L328,113L328,113L328,113z"/>
<path class="st3" d="M0,345.7c6.3,7.5,13.2,14.6,20.5,21.2h588.7c7.3-6.6,14.2-13.6,20.5-21.2H0z"/>
<path class="st4" d="M289.5,275v74.9H342V275c0-1.1-0.7-2.1-1.7-2.4c-0.2-0.1-0.5-0.2-0.7-0.2h-47.4
	C290.7,272.5,289.5,273.6,289.5,275L289.5,275z M310,300.7c0-3.1,2.5-5.5,5.6-5.5s5.5,2.4,5.5,5.5v8.7c0,3.1-2.5,5.6-5.6,5.5
	c-3.1,0-5.5-2.4-5.5-5.5V300.7z"/>
<path class="st3" d="M289.4,347.5v7.2c0,0.8,0.6,1.4,1.4,1.4h49.9c0.8,0,1.4-0.6,1.4-1.4v-7.2H289.4z"/>
<path class="st3" d="M207.1,162.3V299c0,3.6,2.9,6.6,6.6,6.6h202.5c3.6,0,6.6-2.9,6.6-6.6V162.3c0-3.6-2.9-6.6-6.6-6.6H213.6
	C210,155.7,207.1,158.6,207.1,162.3z"/>
<path class="st0" d="M211.8,163.9v133.3c0,2,1.6,3.5,3.5,3.5h199.2c2,0,3.5-1.6,3.5-3.5V163.9c0-2-1.6-3.5-3.5-3.5H215.3
	C213.4,160.4,211.8,162,211.8,163.9z"/>
<path class="st4" d="M252.4,357.8c0.5,0.5,1,0.8,1.7,0.8h118.5c1.2,0,2.2-1,2.2-2.2c0-0.2,0-0.3-0.1-0.5l-1.8-8.8
	c-0.2-0.7-0.6-1.4-1.4-1.6c-0.2-0.1-0.5-0.2-0.8-0.2H256c-0.3,0-0.5,0.1-0.8,0.2c-0.6,0.3-1.2,0.9-1.4,1.6L252,356
	C251.8,356.6,252,357.3,252.4,357.8z"/>
<path class="st3" d="M369.6,349.3h-2.9c-0.2,0-0.4-0.2-0.4-0.4v-1.4c0-0.2,0.2-0.4,0.4-0.4h2.9c0.2,0,0.4,0.2,0.4,0.4v1.4
	C369.9,349.1,369.8,349.3,369.6,349.3z"/>
<path class="st3" d="M362.3,349.3h-2.9c-0.2,0-0.4-0.2-0.4-0.4v-1.4c0-0.2,0.2-0.4,0.4-0.4h2.9c0.2,0,0.4,0.2,0.4,0.4v1.4
	C362.6,349.1,362.5,349.3,362.3,349.3z"/>
<path class="st3" d="M355,349.3h-2.9c-0.2,0-0.4-0.2-0.4-0.4v-1.4c0-0.2,0.2-0.4,0.4-0.4h2.9c0.2,0,0.4,0.2,0.4,0.4v1.4
	C355.3,349.1,355.2,349.3,355,349.3z"/>
<path class="st3" d="M347.7,349.3h-2.9c-0.2,0-0.4-0.2-0.4-0.4v-1.4c0-0.2,0.2-0.4,0.4-0.4h2.9c0.2,0,0.4,0.2,0.4,0.4v1.4
	C348,349.1,347.9,349.3,347.7,349.3z"/>
<path class="st3" d="M340.3,349.3h-2.9c-0.2,0-0.4-0.2-0.4-0.4v-1.4c0-0.2,0.2-0.4,0.4-0.4h2.9c0.2,0,0.4,0.2,0.4,0.4v1.4
	C340.7,349.1,340.6,349.3,340.3,349.3z"/>
<path class="st3" d="M333,349.3h-2.9c-0.2,0-0.4-0.2-0.4-0.4v-1.4c0-0.2,0.2-0.4,0.4-0.4h2.9c0.2,0,0.4,0.2,0.4,0.4v1.4
	C333.5,349.1,333.3,349.3,333,349.3z"/>
<path class="st3" d="M325.8,349.3h-2.9c-0.2,0-0.4-0.2-0.4-0.4v-1.4c0-0.2,0.2-0.4,0.4-0.4h2.9c0.2,0,0.4,0.2,0.4,0.4v1.4
	C326.2,349.1,326,349.3,325.8,349.3z"/>
<path class="st3" d="M318.5,349.3h-2.9c-0.2,0-0.4-0.2-0.4-0.4v-1.4c0-0.2,0.2-0.4,0.4-0.4h2.9c0.2,0,0.4,0.2,0.4,0.4v1.4
	C318.9,349.1,318.7,349.3,318.5,349.3z"/>
<path class="st3" d="M311.2,349.3h-2.9c-0.2,0-0.4-0.2-0.4-0.4v-1.4c0-0.2,0.2-0.4,0.4-0.4h2.9c0.2,0,0.4,0.2,0.4,0.4v1.4
	C311.6,349.1,311.4,349.3,311.2,349.3z"/>
<path class="st3" d="M303.9,349.3H301c-0.2,0-0.4-0.2-0.4-0.4v-1.4c0-0.2,0.2-0.4,0.4-0.4h2.9c0.2,0,0.4,0.2,0.4,0.4v1.4
	C304.2,349.1,304.1,349.3,303.9,349.3z"/>
<path class="st3" d="M296.6,349.3h-2.9c-0.2,0-0.4-0.2-0.4-0.4v-1.4c0-0.2,0.2-0.4,0.4-0.4h2.9c0.2,0,0.4,0.2,0.4,0.4v1.4
	C296.9,349.1,296.8,349.3,296.6,349.3z"/>
<path class="st3" d="M289.3,349.3h-2.9c-0.2,0-0.4-0.2-0.4-0.4v-1.4c0-0.2,0.2-0.4,0.4-0.4h2.9c0.2,0,0.4,0.2,0.4,0.4v1.4
	C289.6,349.1,289.5,349.3,289.3,349.3z"/>
<path class="st3" d="M282,349.3h-2.9c-0.2,0-0.4-0.2-0.4-0.4v-1.4c0-0.2,0.2-0.4,0.4-0.4h2.9c0.2,0,0.4,0.2,0.4,0.4v1.4
	C282.3,349.1,282.2,349.3,282,349.3z"/>
<path class="st3" d="M274.7,349.3h-2.9c-0.2,0-0.4-0.2-0.4-0.4v-1.4c0-0.2,0.2-0.4,0.4-0.4h2.9c0.2,0,0.4,0.2,0.4,0.4v1.4
	C275.1,349.1,274.9,349.3,274.7,349.3z"/>
<path class="st3" d="M267.4,349.3h-3c-0.2,0-0.4-0.2-0.4-0.4v-1.4c0-0.2,0.2-0.4,0.4-0.4h2.9c0.2,0,0.4,0.2,0.4,0.4v1.4
	C267.8,349.1,267.6,349.3,267.4,349.3z"/>
<path class="st3" d="M260.1,349.3h-2.9c-0.2,0-0.4-0.2-0.4-0.4v-1.4c0-0.2,0.2-0.4,0.4-0.4h2.9c0.2,0,0.4,0.2,0.4,0.4v1.4
	C260.5,349.1,260.3,349.3,260.1,349.3z"/>
<path class="st3" d="M369.7,353h-2.9c-0.2,0-0.4-0.2-0.4-0.4v-1.4c0-0.2,0.2-0.4,0.4-0.4h2.9c0.2,0,0.4,0.2,0.4,0.4v1.4
	C370,352.7,369.9,353,369.7,353z"/>
<path class="st3" d="M362.4,353h-2.9c-0.2,0-0.4-0.2-0.4-0.4v-1.4c0-0.2,0.2-0.4,0.4-0.4h2.9c0.2,0,0.4,0.2,0.4,0.4v1.4
	C362.7,352.7,362.5,353,362.4,353z"/>
<path class="st3" d="M355.1,353h-2.9c-0.2,0-0.4-0.2-0.4-0.4v-1.4c0-0.2,0.2-0.4,0.4-0.4h2.9c0.2,0,0.4,0.2,0.4,0.4v1.4
	C355.4,352.7,355.2,353,355.1,353z"/>
<path class="st3" d="M347.7,353h-2.9c-0.2,0-0.4-0.2-0.4-0.4v-1.4c0-0.2,0.2-0.4,0.4-0.4h2.9c0.2,0,0.4,0.2,0.4,0.4v1.4
	C348.1,352.7,347.9,353,347.7,353z"/>
<path class="st3" d="M340.4,353h-2.9c-0.2,0-0.4-0.2-0.4-0.4v-1.4c0-0.2,0.2-0.4,0.4-0.4h2.9c0.2,0,0.4,0.2,0.4,0.4v1.4
	C340.8,352.7,340.7,353,340.4,353z"/>
<path class="st3" d="M333.1,353h-2.9c-0.2,0-0.4-0.2-0.4-0.4v-1.4c0-0.2,0.2-0.4,0.4-0.4h2.9c0.2,0,0.4,0.2,0.4,0.4v1.4
	C333.5,352.7,333.4,353,333.1,353z"/>
<path class="st3" d="M325.8,353h-2.9c-0.2,0-0.4-0.2-0.4-0.4v-1.4c0-0.2,0.2-0.4,0.4-0.4h2.9c0.2,0,0.4,0.2,0.4,0.4v1.4
	C326.2,352.7,326.1,353,325.8,353z"/>
<path class="st3" d="M318.6,353h-2.9c-0.2,0-0.4-0.2-0.4-0.4v-1.4c0-0.2,0.2-0.4,0.4-0.4h2.9c0.2,0,0.4,0.2,0.4,0.4v1.4
	C319,352.7,318.8,353,318.6,353z"/>
<path class="st3" d="M311.3,353h-2.9c-0.2,0-0.4-0.2-0.4-0.4v-1.4c0-0.2,0.2-0.4,0.4-0.4h2.9c0.2,0,0.4,0.2,0.4,0.4v1.4
	C311.6,352.7,311.5,353,311.3,353z"/>
<path class="st3" d="M304,353h-2.9c-0.2,0-0.4-0.2-0.4-0.4v-1.4c0-0.2,0.2-0.4,0.4-0.4h2.9c0.2,0,0.4,0.2,0.4,0.4v1.4
	C304.3,352.7,304.2,353,304,353z"/>
<path class="st3" d="M296.7,353h-2.9c-0.2,0-0.4-0.2-0.4-0.4v-1.4c0-0.2,0.2-0.4,0.4-0.4h2.9c0.2,0,0.4,0.2,0.4,0.4v1.4
	C297,352.7,296.8,353,296.7,353z"/>
<path class="st3" d="M289.4,353h-2.9c-0.2,0-0.4-0.2-0.4-0.4v-1.4c0-0.2,0.2-0.4,0.4-0.4h2.9c0.2,0,0.4,0.2,0.4,0.4v1.4
	C289.7,352.7,289.5,353,289.4,353z"/>
<path class="st3" d="M282,353h-2.9c-0.2,0-0.4-0.2-0.4-0.4v-1.4c0-0.2,0.2-0.4,0.4-0.4h2.9c0.2,0,0.4,0.2,0.4,0.4v1.4
	C282.4,352.7,282.3,353,282,353z"/>
<path class="st3" d="M274.7,353h-2.9c-0.2,0-0.4-0.2-0.4-0.4v-1.4c0-0.2,0.2-0.4,0.4-0.4h2.9c0.2,0,0.4,0.2,0.4,0.4v1.4
	C275.1,352.7,275,353,274.7,353z"/>
<path class="st3" d="M267.4,353h-2.9c-0.2,0-0.4-0.2-0.4-0.4v-1.4c0-0.2,0.2-0.4,0.4-0.4h2.9c0.2,0,0.4,0.2,0.4,0.4v1.4
	C267.8,352.7,267.7,353,267.4,353z"/>
<path class="st3" d="M260.2,353h-3c-0.2,0-0.4-0.2-0.4-0.4v-1.4c0-0.2,0.2-0.4,0.4-0.4h2.9c0.2,0,0.4,0.2,0.4,0.4v1.4
	C260.6,352.7,260.4,353,260.2,353z"/>
<path class="st3" d="M334.6,357.3h-28.4c-0.2,0-0.4-0.2-0.4-0.4v-1.4c0-0.2,0.2-0.4,0.4-0.4h28.4c0.2,0,0.4,0.2,0.4,0.4v1.4
	C335,357.1,334.8,357.3,334.6,357.3z"/>
<path class="st3" d="M225.4,178.7h186.4c0.5,0,0.7-0.4,0.7-0.7s-0.3-0.7-0.7-0.7H225.4c-0.5,0-0.7,0.4-0.7,0.7
	C224.6,178.4,224.9,178.7,225.4,178.7z"/>
<ellipse class="st3" cx="399" cy="169" rx="4.4" ry="4.4"/>
<ellipse class="st3" cx="384" cy="169" rx="4.4" ry="4.4"/>
<ellipse class="st3" cx="369" cy="169" rx="4.4" ry="4.4"/>
<path class="st3" d="M233.6,166.5c0,0.5,0.4,0.8,0.8,0.8l0,0H245c0.5,0,0.8-0.4,0.8-0.8c0-0.5-0.4-0.8-0.8-0.8h-10.6
	C233.9,165.7,233.6,166.1,233.6,166.5z"/>
<path class="st3" d="M233.6,169.5c0,0.5,0.4,0.8,0.8,0.8l0,0H245c0.5,0,0.8-0.4,0.8-0.8c0-0.5-0.4-0.8-0.8-0.8h-10.6
	C233.9,168.8,233.6,169.1,233.6,169.5z"/>
<path class="st3" d="M233.6,172.6c0,0.5,0.4,0.8,0.8,0.8H245c0.5,0,0.8-0.4,0.8-0.8c0-0.5-0.4-0.8-0.8-0.8h-10.6
	C233.9,171.8,233.6,172.2,233.6,172.6L233.6,172.6z"/>
<path class="st1" d="M233,195.9h3.8c1.2,0,2.1,1,2.1,2.1l0,0c0,1.2-1,2.1-2.1,2.1H233c-1.2,0-2.1-1-2.1-2.1l0,0
	C231,196.9,232,195.9,233,195.9z"/>
<path class="st1" d="M276.8,195.9h3.8c1.2,0,2.1,1,2.1,2.1l0,0c0,1.2-1,2.1-2.1,2.1h-3.8c-1.2,0-2.1-1-2.1-2.1l0,0
	C274.7,196.9,275.7,195.9,276.8,195.9z"/>
<path class="st1" d="M289.2,195.9h3.8c1.2,0,2.1,1,2.1,2.1l0,0c0,1.2-1,2.1-2.1,2.1h-3.8c-1.2,0-2.1-1-2.1-2.1l0,0
	C287.2,196.9,288.1,195.9,289.2,195.9z"/>
<path class="st1" d="M244.9,195.7h23.8c1.2,0,2.1,1,2.1,2.1l0,0c0,1.2-1,2.1-2.1,2.1h-23.8c-1.2,0-2.1-1-2.1-2.1l0,0
	C242.9,196.6,243.8,195.7,244.9,195.7z"/>
<path class="st1" d="M303.3,195.7h23.8c1.2,0,2.1,1,2.1,2.1l0,0c0,1.2-1,2.1-2.1,2.1h-23.8c-1.2,0-2.1-1-2.1-2.1l0,0
	C301.3,196.6,302.2,195.7,303.3,195.7z"/>
<path class="st1" d="M244.7,205.4h3.8c1.2,0,2.1,1,2.1,2.1l0,0c0,1.2-1,2.1-2.1,2.1h-3.8c-1.2,0-2.1-1-2.1-2.1l0,0
	C242.6,206.4,243.6,205.4,244.7,205.4z"/>
<path class="st1" d="M288.5,205.4h3.8c1.2,0,2.1,1,2.1,2.1l0,0c0,1.2-1,2.1-2.1,2.1h-3.8c-1.2,0-2.1-1-2.1-2.1l0,0
	C286.5,206.4,287.4,205.4,288.5,205.4z"/>
<path class="st1" d="M300.9,205.4h3.8c1.2,0,2.1,1,2.1,2.1l0,0c0,1.2-1,2.1-2.1,2.1h-3.8c-1.2,0-2.1-1-2.1-2.1l0,0
	C298.8,206.4,299.8,205.4,300.9,205.4z"/>
<path class="st1" d="M256.7,205.1h23.8c1.2,0,2.1,1,2.1,2.1l0,0c0,1.2-1,2.1-2.1,2.1h-23.8c-1.2,0-2.1-1-2.1-2.1l0,0
	C254.5,206.1,255.5,205.1,256.7,205.1z"/>
<path class="st1" d="M315.1,205.1h23.8c1.2,0,2.1,1,2.1,2.1l0,0c0,1.2-1,2.1-2.1,2.1h-23.8c-1.2,0-2.1-1-2.1-2.1l0,0
	C312.9,206.1,313.9,205.1,315.1,205.1z"/>
<path class="st1" d="M256.4,214.9h3.8c1.2,0,2.1,1,2.1,2.1l0,0c0,1.2-1,2.1-2.1,2.1h-3.8c-1.2,0-2.1-1-2.1-2.1l0,0
	C254.3,215.9,255.2,214.9,256.4,214.9z"/>
<path class="st1" d="M300.2,214.9h3.8c1.2,0,2.1,1,2.1,2.1l0,0c0,1.2-1,2.1-2.1,2.1h-3.8c-1.2,0-2.1-1-2.1-2.1l0,0
	C298.1,215.9,299.1,214.9,300.2,214.9z"/>
<path class="st1" d="M312.5,214.9h3.8c1.2,0,2.1,1,2.1,2.1l0,0c0,1.2-1,2.1-2.1,2.1h-3.8c-1.2,0-2.1-1-2.1-2.1l0,0
	C310.6,215.9,311.5,214.9,312.5,214.9z"/>
<path class="st1" d="M268.3,214.6h23.8c1.2,0,2.1,1,2.1,2.1l0,0c0,1.2-1,2.1-2.1,2.1h-23.8c-1.2,0-2.1-1-2.1-2.1l0,0
	C266.2,215.6,267.2,214.6,268.3,214.6z"/>
<path class="st1" d="M326.7,214.6h23.8c1.2,0,2.1,1,2.1,2.1l0,0c0,1.2-1,2.1-2.1,2.1h-23.8c-1.2,0-2.1-1-2.1-2.1l0,0
	C324.6,215.6,325.5,214.6,326.7,214.6z"/>
<path class="st1" d="M268.1,224.5h3.8c1.2,0,2.1,1,2.1,2.1l0,0c0,1.2-1,2.1-2.1,2.1h-3.8c-1.2,0-2.1-1-2.1-2.1l0,0
	C266,225.4,267,224.5,268.1,224.5z"/>
<path class="st1" d="M311.8,224.5h3.8c1.2,0,2.1,1,2.1,2.1l0,0c0,1.2-1,2.1-2.1,2.1h-3.8c-1.2,0-2.1-1-2.1-2.1l0,0
	C309.8,225.4,310.7,224.5,311.8,224.5z"/>
<path class="st1" d="M324.3,224.5h3.8c1.2,0,2.1,1,2.1,2.1l0,0c0,1.2-1,2.1-2.1,2.1h-3.8c-1.2,0-2.1-1-2.1-2.1l0,0
	C322.2,225.4,323.2,224.5,324.3,224.5z"/>
<path class="st1" d="M280.1,224.1h23.8c1.2,0,2.1,1,2.1,2.1l0,0c0,1.2-1,2.1-2.1,2.1h-23.8c-1.2,0-2.1-1-2.1-2.1l0,0
	C277.9,225.1,278.9,224.1,280.1,224.1z"/>
<path class="st1" d="M276.8,262.2h3.8c1.2,0,2.1,1,2.1,2.1l0,0c0,1.2-1,2.1-2.1,2.1h-3.8c-1.2,0-2.1-1-2.1-2.1l0,0
	C274.7,263.1,275.7,262.2,276.8,262.2z"/>
<path class="st1" d="M289.2,262.2h3.8c1.2,0,2.1,1,2.1,2.1l0,0c0,1.2-1,2.1-2.1,2.1h-3.8c-1.2,0-2.1-1-2.1-2.1l0,0
	C287.2,263.1,288.1,262.2,289.2,262.2z"/>
<path class="st1" d="M303.3,262.5h23.8c1.2,0,2.1,1,2.1,2.1l0,0c0,1.2-1,2.1-2.1,2.1h-23.8c-1.2,0-2.1-1-2.1-2.1l0,0
	C301.3,263.5,302.2,262.5,303.3,262.5z"/>
<path class="st1" d="M233,262.2h3.8c1.2,0,2.1,1,2.1,2.1l0,0c0,1.2-1,2.1-2.1,2.1H233c-1.2,0-2.1-1-2.1-2.1l0,0
	C231,263.1,232,262.2,233,262.2z"/>
<path class="st1" d="M244.9,262.5h23.8c1.2,0,2.1,1,2.1,2.1l0,0c0,1.2-1,2.1-2.1,2.1h-23.8c-1.2,0-2.1-1-2.1-2.1l0,0
	C242.9,263.5,243.8,262.5,244.9,262.5z"/>
<path class="st1" d="M244.7,252.7h3.8c1.2,0,2.1,1,2.1,2.1l0,0c0,1.2-1,2.1-2.1,2.1h-3.8c-1.2,0-2.1-1-2.1-2.1l0,0
	C242.6,253.6,243.6,252.7,244.7,252.7z"/>
<path class="st1" d="M288.5,252.7h3.8c1.2,0,2.1,1,2.1,2.1l0,0c0,1.2-1,2.1-2.1,2.1h-3.8c-1.2,0-2.1-1-2.1-2.1l0,0
	C286.5,253.6,287.4,252.7,288.5,252.7z"/>
<path class="st1" d="M300.9,252.7h3.8c1.2,0,2.1,1,2.1,2.1l0,0c0,1.2-1,2.1-2.1,2.1h-3.8c-1.2,0-2.1-1-2.1-2.1l0,0
	C298.8,253.6,299.8,252.7,300.9,252.7z"/>
<path class="st1" d="M256.7,253.1h23.8c1.2,0,2.1,1,2.1,2.1l0,0c0,1.2-1,2.1-2.1,2.1h-23.8c-1.2,0-2.1-1-2.1-2.1l0,0
	C254.5,254,255.5,253.1,256.7,253.1z"/>
<path class="st1" d="M256.4,243.1h3.8c1.2,0,2.1,1,2.1,2.1l0,0c0,1.2-1,2.1-2.1,2.1h-3.8c-1.2,0-2.1-1-2.1-2.1l0,0
	C254.3,244.1,255.2,243.1,256.4,243.1z"/>
<path class="st1" d="M300.2,243.1h3.8c1.2,0,2.1,1,2.1,2.1l0,0c0,1.2-1,2.1-2.1,2.1h-3.8c-1.2,0-2.1-1-2.1-2.1l0,0
	C298.1,244.1,299.1,243.1,300.2,243.1z"/>
<path class="st1" d="M312.5,243.1h3.8c1.2,0,2.1,1,2.1,2.1l0,0c0,1.2-1,2.1-2.1,2.1h-3.8c-1.2,0-2.1-1-2.1-2.1l0,0
	C310.6,244.1,311.5,243.1,312.5,243.1z"/>
<path class="st1" d="M268.3,243.6h23.8c1.2,0,2.1,1,2.1,2.1l0,0c0,1.2-1,2.1-2.1,2.1h-23.8c-1.2,0-2.1-1-2.1-2.1l0,0
	C266.2,244.5,267.2,243.6,268.3,243.6z"/>
<path class="st1" d="M268.1,233.7h3.8c1.2,0,2.1,1,2.1,2.1l0,0c0,1.2-1,2.1-2.1,2.1h-3.8c-1.2,0-2.1-1-2.1-2.1l0,0
	C266,234.7,267,233.7,268.1,233.7z"/>
<path class="st1" d="M311.8,233.7h3.8c1.2,0,2.1,1,2.1,2.1l0,0c0,1.2-1,2.1-2.1,2.1h-3.8c-1.2,0-2.1-1-2.1-2.1l0,0
	C309.8,234.7,310.7,233.7,311.8,233.7z"/>
<path class="st1" d="M324.3,233.7h3.8c1.2,0,2.1,1,2.1,2.1l0,0c0,1.2-1,2.1-2.1,2.1h-3.8c-1.2,0-2.1-1-2.1-2.1l0,0
	C322.2,234.7,323.2,233.7,324.3,233.7z"/>
<path class="st1" d="M280.1,234h23.8c1.2,0,2.1,1,2.1,2.1l0,0c0,1.2-1,2.1-2.1,2.1h-23.8c-1.2,0-2.1-1-2.1-2.1l0,0
	C277.9,235,278.9,234,280.1,234z"/>
<path class="st3" d="M255.4,398.5c-0.2,0.1-0.3,0.2-0.5,0.2c-1,0.5-2.1,1-3.1,1.4c-3.1,1.4-6.2,2.9-9.4,4.2
	c-8.3,3.5-16.9,6.4-25.5,8.8c-1.4-9.1-2.9-30.6-4.2-46.4c-0.2-3-0.5-5.8-0.7-8.2c-0.2-3.2-0.7-6.4-1.4-9.6c-0.1-0.2-0.2-0.5-0.3-0.7
	c0.2,1.3,0.3,5.1,0.5,10.2c0.1,2.4,0.2,5.1,0.2,8.2c0.4,15.2,0.7,35.9,1.1,47.7c-1,0.2-2.1,0.5-3.1,0.7c-0.6,0.2-1.4,0.3-2,0.5
	c-0.8,0.2-1.6,0.4-2.3,0.5c-0.8,0.2-1.7,0.4-2.4,0.5c-13.5,2.6-27.2,4-41,4c-1,0-1.8,0-2.7,0c-0.3,0-0.5,0-0.8,0
	c-0.8,0-1.6,0-2.4-0.1c-16.2-0.5-32.3-2.8-48-6.9l0.6-46.8l0.1-8.2l0.1-3.2c-0.4,1-0.5,2.1-0.6,3.2c-0.3,2-0.5,4.8-0.8,8.2
	c-1,13-2.1,33.8-3.1,45.8c-12.6-3.6-21.8-6.9-33.4-12.6c-0.5-0.2-0.9-0.5-1.4-0.6c0.1-0.5,0.2-1.1,0.2-1.7c1.4-9-0.2-20.8,1.3-30.8
	c1.1-7.6,2.3-15,3.3-21.2c1.4-7.4,2.8-13.4,4.2-16.2c1.6-3.2,3.2-6.6,4.8-9.7c0.6-1.4,1.4-2.6,2-4c0.4-0.7,0.7-1.4,1-2.1
	c1.5-3.1,3.1-6,4.4-8.4c1-1.7,1.8-3.3,2.6-4.8c1-1.7,1.7-3,2.4-4c5.1-7.7,12.6-13.4,21.4-16.2l0.2-0.1l0.2,0.1l0.2,0.2l13.9-5.1
	l6.2-15l31.9-2l5.1,4l2.6,2.1l2.9,2.1l5.1,4l1.4,0.5l2.2,0.6l15,4.6l0.2-0.1l0.2,0.1c7.9,2.5,15,7.5,20,14.3c0.5,0.6,1,1.4,1.4,2
	c1.3,1.8,2.9,4.6,4.8,8.2c0.8,1.4,1.6,3.1,2.5,4.8c0.5,1,5.1,15.3,9.7,30c4.2,13.7,8.2,27.7,8.8,31.3c0.1,0.6,0.2,1.4,0.3,2
	c0.5,4.2,1.3,8.3,1.7,12.4c0.9,6,1.7,11.9,2.4,17.1C255.4,398.4,255.4,398.5,255.4,398.5z"/>
<polygon class="st5" points="221.7,345.7 215.4,321.8 209.9,342.4 "/>
<path class="st4" d="M11.6,345.4c0.6,1.9,2.4,3.2,4.5,3.2l19.3-0.5c2.1-0.1,3.8-1.4,4.4-3.4l2.7-29.2c1,0.5,2.1,0.6,3.1,0.6
	c3.9-0.1,6.9-3.3,6.9-7.2s-3.3-6.9-7.2-6.9l0,0c-0.5,0-0.9,0.1-1.3,0.2c-1-1-2.2-1.5-3.6-1.5l-29.8,0.8c-0.2,0-0.5,0.1-0.7,0.1
	c-2.5,0.5-4.2,2.9-3.7,5.4c0.1,0.2,0.1,0.5,0.2,0.5L11.6,345.4z M43.1,313.4l2-7c0.2-0.8,0.2-1.7,0-2.4c0.1,0,0.2-0.1,0.3-0.1
	c2.8-0.1,5.1,2.2,5.1,5c0,2.8-2.1,5.1-4.9,5.1C44.7,314,43.8,313.8,43.1,313.4L43.1,313.4z"/>
<path class="st3" d="M9.9,301.4c0.6,3.6,7.8,6.2,16.3,5.7c7.9-0.4,14.4-3.2,15.4-6.4c-0.5-0.2-0.9-0.2-1.4-0.2l-29.8,0.8
	C10.5,301.3,10.2,301.3,9.9,301.4z"/>
<path class="st3" d="M573.1,399.3c-0.5,0.2-0.9,0.5-1.4,0.6c-11.6,5.8-20.8,9-33.4,12.6c-1.1-11.9-2.1-32.9-3.1-45.8
	c-0.3-3.3-0.5-6.2-0.8-8.2c-0.1-1.1-0.3-2.1-0.6-3.2l0.1,3.2l0.2,8.2l0.6,46.8c-15.7,4.2-31.9,6.5-48,6.9c-0.9,0-1.7,0-2.4,0.1
	c-0.3,0-0.5,0-0.9,0c-1,0-1.8,0-2.7,0c-17.1,0-34.1-2.1-50.7-6.1c0.4-11.7,0.7-32.5,1-47.7c0.1-3,0.2-5.8,0.2-8.2
	c0.2-5.2,0.3-8.9,0.5-10.2c-0.2,0.2-0.2,0.5-0.3,0.7c-0.6,3.2-1.2,6.3-1.4,9.6c-0.2,2.4-0.5,5.1-0.7,8.2
	c-1.4,15.8-2.8,37.2-4.2,46.4c-8.7-2.4-17.2-5.3-25.5-8.8c-4.4-1.8-8.7-3.8-12.9-6c0.8-5.2,1.7-11.2,2.4-17.2
	c0.6-4.8,1.4-9.7,2.1-14.4c1.1-7.4,38.4-87.6,47.1-90.5l0.2-0.1l0.2,0.1l15-4.6l2.2-0.6l1.4-0.5l5.1-4l2.8-2.1l2.6-2.1l5.1-4l31.9,2
	l6.2,15l13.9,5.1l0.2-0.2l0.2-0.1l0.2,0.1c8.8,2.8,16.2,8.6,21.4,16.2c0.6,1,1.5,2.4,2.4,4c0.8,1.4,1.7,3,2.6,4.8
	c1.4,2.4,2.9,5.3,4.4,8.4c0.4,0.6,0.7,1.4,1,2.1c0.6,1.4,1.4,2.6,2,4c1.5,3.2,3.2,6.3,4.8,9.7c1.4,2.9,2.8,8.8,4.2,16.2
	c1.2,6.2,2.3,13.5,3.3,21.2c1.4,9.8-0.1,21.7,1.3,30.8C572.9,398.1,573,398.7,573.1,399.3z"/>
<ellipse transform="matrix(0.1602 -0.9871 0.9871 0.1602 189.417 654.9481)" class="st6" cx="479.6" cy="216.2" rx="37.1" ry="37.1"/>
<polygon class="st5" points="420.2,345.7 426.4,321.8 432,342.4 "/>
<path class="st4" d="M585.3,330.1c-2.2,30.6,0.1,44-12.2,69.2c-11.2,5.5-22.7,9.9-34.7,13.3c-1.3,0.4-2.4,0.6-3.7,1
	c-15.7,4.2-31.9,6.5-48,6.9c-0.9,0-1.7,0-2.4,0.1c-0.3,0-0.5,0-0.9,0c-1,0-1.8,0-2.7,0c-17.1,0-34.1-2.1-50.7-6.1
	c-1.7-0.5-3.2-0.9-5-1.4c-8.7-2.4-17.2-5.3-25.5-8.8c-4.4-1.8-8.7-3.8-12.9-6c-1-0.5-1.9-1-2.9-1.4c-4.8-8.6-7.6-18.9-7.7-31.3
	C379.2,344.3,577.8,311.6,585.3,330.1z"/>
<path class="st5" d="M585.3,335.3c0.2-1.9,0.2-3.9,0.4-6c-7.4-18.5-206,14.3-209.3,35.7c0,2,0.1,3.9,0.2,5.8
	C384.6,349.6,573.3,318.6,585.3,335.3z"/>
<path class="st6" d="M370.9,331.5l16.2-8.2l-13.5-36.7l-3.6-18.5c-1.4-7.6-8.8-12.5-16.4-11.1c-2.4,0.5-4.6,1.5-6.4,3.2l0,0
	c-5.7,4.9-6.5,13.5-1.8,19.3l13.3,16.6L370.9,331.5z"/>
<path class="st3" d="M387.3,316.5l-21.8,10.9l16.5,51.7c2.4,7.5,8.6,13.3,16.2,15.1l0,0c9.6,2.3,19.6-1.9,24.6-10.4l43.7-75
	c6.4-10.7,3.2-24.6-7.4-31.4l0,0c-10.8-6.8-25-3.6-31.9,7.1c-0.5,0.7-0.9,1.4-1.3,2.2l-26.7,56.9L387.3,316.5z"/>
<circle class="st7" cx="153" cy="209.9" r="40.8"/>
<path class="st4" d="M112.5,181.8c3.2-4.4,8.1-7.7,11.7-11.9c2-2.3,3.6-4.9,6-7c4.2-3.9,10-5.4,15.7-5.6
	c12.6-0.3,24.6,5.4,32.3,15.3c3-1.7,6-3.5,8.9-5.1c1.2,3.1,2.3,6.2,3.5,9.3c2.3-2,5.6-1.7,7.6,0.5c1.5,1.7,1.7,4.2,0.5,6.2
	c0.7-2.2,4-2.6,5.7-1.2c1.7,1.4,2.3,4,2,6.3c-0.7,5.1-4.5,9.3-9.6,10.5c-3.9,0.9-8.4-0.1-11.5,2.4c-2.4,2-3.2,5.6-5.8,7.5
	c-3.2,2.3-7.5,1.3-11.4,1.8c-6.8,1-12.2,7.9-11.4,14.7c-0.5-2.1-1.3-4.4-2.6-6.1c-1.4-1.7-3.7-2.9-6-2.3c-3.5,1.1-4.1,6-3.2,9.5
	c2.3,9.5,10.9,24.9,10.9,24.9c-11.2,4.4-24.5,0.2-33.1-8.1c-8.6-8.4-13.2-20.2-15.1-32.1C106.3,201.1,106.5,189.9,112.5,181.8z"/>
<path class="st4" d="M526.1,236.6c7.8-17.8,3.3-34.1-6.1-43l0,0c-3.7-8.3-8.7-14.8-14.4-16.2c-2.8-1.7-5.4-3.8-8.3-4.9
	c-2.8-1-5.9-0.9-8.6,0.4l-1.5-0.4c-1.4-3.2-2.8-3.3-4.4-1.2c-6.4-3-12.2-4.3-17.3-4.3c-16.8,0-26.6,14.2-29.2,31.3l14,3.7l4.9-7.8
	l-2.3,8.5l7.8,2.1c11.7,15.3-2.3,50.6-20.1,70.4c4.2-1.2,8.5-2.2,12.7-3l15.3-22.5l-9.5,20.4c5-0.7,11.3,0,18.1,1.4
	c2.3-3,3.5-7,2.3-10.6c2,3.8,3.2,7.9,4,12c14.5,3.5,34.3,5.3,44.9,6.7C536.8,276.8,536.8,245,526.1,236.6z"/>
<path class="st4" d="M531.1,176c5.7,12.8-5.8,18.2-16.2,18.1c-9.5-0.2-17.6-6.8-18.1-16.2c-0.5-9.5,6.8-17.6,16.2-18.1l0,0
	C522.5,159.2,527.3,167.3,531.1,176z"/>
<path class="st7" d="M267.2,383.4l-9.3-15.6l31.1-23.6l13-13.6c5.3-5.6,14.2-5.9,19.8-0.5c1.7,1.7,3.1,3.8,3.8,6l0,0
	c2.2,7.2-1.7,14.9-8.8,17.3l-20.1,6.9L267.2,383.4z"/>
<path class="st3" d="M273.9,382.9L259.3,395l-4,3.2l-0.5,0.4c-1,0.5-2.1,1-3.1,1.4c-3.1,1.4-6.2,2.9-9.4,4.2
	c-8.3,3.5-16.9,6.4-25.5,8.8c-1.7,0.5-3.2,0.9-5,1.4c-1,0.2-2.1,0.5-3.1,0.7c-0.6,0.2-1.4,0.3-2,0.5c-0.8,0.2-1.6,0.4-2.3,0.5
	c-0.8,0.2-1.7,0.4-2.4,0.5c-4.4-4.2-7-10.2-7-16.3c0-0.2,0-0.4,0-0.5l2.3-60.1l1-26.6c0.4-12.5,10.6-22.5,23.1-22.5
	c0.7,0,1.4,0,2.1,0.1c0.5,0.6,1,1.4,1.4,2c1.3,1.8,2.9,4.6,4.8,8.2c0.8,1.4,1.6,3.1,2.5,4.8c0.5,1,5.1,15.3,9.7,30l-2,15.3
	l-3.6,27.6l14.6-9.6l10.3-6.8l1.3,2.1l3.2,5.3l6.1,10.2L273.9,382.9z"/>
<path class="st4" d="M265.9,365.7c0,1.3,0,2.4-0.1,3.6c-0.2,3.3-0.5,6.7-1.2,9.9c-1,5.5-2.8,10.8-5.3,15.8c-0.4,0.6-0.7,1.4-1.1,2
	c-1,0.5-1.9,1-2.9,1.4c-0.2,0.1-0.3,0.2-0.5,0.2c-4.1,2.1-8.2,4-12.4,5.7c-8.3,3.5-16.9,6.4-25.5,8.8c-1.7,0.5-3.2,0.9-5,1.4
	c-3.2,0.8-6.5,1.5-9.8,2.2c-13.5,2.6-27.2,4-41,4c-1,0-1.8,0-2.7,0c-0.3,0-0.5,0-0.8,0c-0.8,0-1.6,0-2.4-0.1
	c-16.2-0.5-32.3-2.8-48-6.9c-1.3-0.4-2.4-0.6-3.7-1c-11.9-3.3-23.6-7.9-34.7-13.3c-12.3-25.2-9.9-38.7-12.2-69.2
	c4.5-11.4,81.6-3.3,141,9.5c16.2,3.5,30.9,7.3,42.5,11.3c12,4,20.8,8.2,24.3,12C265.2,363.6,265.7,364.6,265.9,365.7z"/>
<path class="st5" d="M56.6,335.3c-0.2-1.9-0.2-3.9-0.4-6c7.4-18.5,206,14.3,209.3,35.7c0,2-0.1,3.9-0.2,5.8
	C257.1,349.6,68.6,318.6,56.6,335.3z"/>
<circle class="st0" cx="25.9" cy="326.4" r="2.4"/>
<g>
	<ellipse class="st8" cx="25.9" cy="326.4" rx="13.3" ry="5.1"/>
	<ellipse transform="matrix(0.866 -0.5 0.5 0.866 -159.7028 56.6609)" class="st8" cx="25.9" cy="326.3" rx="5.1" ry="13.3"/>
	<ellipse transform="matrix(0.5 -0.866 0.866 0.5 -269.78 185.5373)" class="st8" cx="25.8" cy="326.4" rx="13.3" ry="5.1"/>
</g>
</svg>
