<?xml version="1.0" encoding="utf-8"?>
<!-- Generator: Adobe Illustrator 22.0.1, SVG Export Plug-In . SVG Version: 6.00 Build 0)  -->
<svg version="1.1" id="Layer_1" xmlns="http://www.w3.org/2000/svg" xmlns:xlink="http://www.w3.org/1999/xlink" x="0px" y="0px"
	 viewBox="0 0 506.3 527.8" style="enable-background:new 0 0 506.3 527.8;" xml:space="preserve">
<style type="text/css">
	.st0{fill:#FFC5C5;}
	.st1{fill:#543C3C;}
	.st2{opacity:0.1;enable-background:new    ;}
	.st3{fill:#FF6464;}
	.st4{fill:#875757;}
	.st5{fill:#A0616A;}
	.st6{fill:#59370B;}
	.st7{fill:#3F2D2D;}
	.st8{fill:#66430C;}
	.st9{fill:#2F2E41;}
</style>
<polygon class="st0" points="121.5,26.8 134.2,52.5 162.5,56.7 142,76.7 146.9,104.8 121.5,91.5 96.1,104.8 101,76.7 80.5,56.7 
	108.8,52.5 "/>
<polygon class="st0" points="425.2,216.8 391.4,216.8 374.5,246.1 391.4,275.4 425.2,275.4 442.1,246.1 "/>
<path class="st1" d="M479.8,491.8c0,19.9-107.4,36-239.9,36S0,511.7,0,491.8c0-14.1,53.9-26.2,132.3-32.2
	c32.3-2.5,68.9-3.8,107.6-3.8c15.9,0,31.4,0.2,46.4,0.7C396.6,459.8,479.8,474.3,479.8,491.8z"/>
<ellipse class="st2" cx="209" cy="488" rx="92.1" ry="11.2"/>
<ellipse class="st1" cx="208.6" cy="403.2" rx="87.1" ry="92.9"/>
<rect x="181.8" y="458.2" class="st3" width="54.2" height="49.5"/>
<polygon class="st4" points="306.8,470.1 303.7,487.1 323.9,490.3 337,482.5 336.2,470.1 "/>
<path class="st5" d="M205.5,150.6c0,0-1.6,17.8-5.4,18.6c-3.9,0.7,8.5,31.7,8.5,31.7h18.6l14.7-3.9l-7-17c0,0-9.3-12.4-2.3-22.4
	C239.5,147.4,205.5,150.6,205.5,150.6z"/>
<path class="st6" d="M205.5,150.6c0,0-1.6,17.8-5.4,18.6c-3.9,0.7,8.5,31.7,8.5,31.7h18.6l14.7-3.9l-7-17c0,0-9.3-12.4-2.3-22.4
	C239.5,147.4,205.5,150.6,205.5,150.6z"/>
<path class="st7" d="M166.8,286.7c0,0-20.1,38.7-3.9,46.4c16.3,7.7,20.1,7,20.1,9.3s-3.1,1.6-1.6,5.4c1.6,3.9-3.1,19.3,1.6,28.6
	c4.6,9.3,3.1,16.3,3.1,16.3s0,0.7,1.6,3.9c1.6,3.1,2.3,5.4,1.6,7c-0.7,1.6-5.4,11.6-0.7,14c4.6,2.3,28.6,3.9,31,0s-2.3-6.2,0-8.5
	c2.3-2.4,3.9-3.1,2.3-4.7c-1.6-1.6-3.1-20.9-3.1-20.9s3.9-22.4,2.3-25.6c-1.6-3.1-3.9-6.2-2.3-8.5c1.6-2.3,3.1-1.6,3.9-4.7
	c0.7-3.1,2.3-10,2.3-10l8.5-0.7l20.1,3.9c0,0,22.4,24.7,47.2,32.5c0,0,7,7,9.3,7s2.3,0,1.6,1.6c-0.7,1.6-3.1,1.6-1.6,3.1
	c1.6,1.6,3.9-0.7,2.3,1.6s-3.1,2.3-1.6,3.9c1.6,1.6-0.7,10-0.7,10.8c0,0.7-7,73.5-4.7,75s34.8,6.2,37.1,0s-1.6-14-1.6-14
	s11.6-92.9,8.5-99c-3-6.2-13.9-34-72-51.8c0,0-16.3-3.1-16.3-5.4c0-2.3-1.6-17-4.7-17.8c-3.1-0.7-20.9-1.6-20.9-1.6l-22.4,7l-31-5.4
	L166.8,286.7z"/>
<path class="st7" d="M193.9,416.7l-3.9,14c0,0-3.1,22.4,0.7,27.9c3,4.2,8.5,9.4,18.5,10.4c5.8,0.5,11.2-3,13-8.6
	c0.1-0.3,0.1-0.7,0.2-1c0-1.6-2.3-20.1-2.3-20.1l-3.9-19.3l-0.7-5.4L193.9,416.7z"/>
<path class="st7" d="M306.8,483.3c0,0-3.9-3.9-4.7,0s-3.9,20.1,1.6,20.9c5.4,0.7,57.3,8.5,62.7,5.4c5.4-3.1,15.5-7.7,9.3-10
	s-24-9.3-24-9.3s-10-13.1-11.6-14c-1.6-0.7-10,0.7-13.9,3.9C322.3,483.3,306.8,483.3,306.8,483.3z"/>
<circle class="st8" cx="224" cy="142.8" r="24"/>
<path class="st4" d="M221.7,197l-9.3-10l-10.3-20.1c0,0-7.5-2.3-9.1,1.6c-1.6,3.9-29.4,16.3-29.4,16.3s7,65,3.9,71.2
	c-3.1,6.2-8.5,31-3.9,33.3c4.6,2.3,26.3,0,33.3,3.1c7,3.1,27.1,3.1,32.5-0.7c5.3-3.9,7-7,12.4-4.7c4.7,2,15.4-65.6,18.5-85.7
	c0.5-3.5-1-6.9-3.8-8.9c-7-4.9-19.4-13.2-21.7-12.2C231.8,181.5,221.7,197,221.7,197z"/>
<path class="st4" d="M255,193.9L255,193.9c3.7,1,6.5,4.1,6.9,7.9l6.2,56.3c0,0-15.5,33.3-23.2,10.8C237.3,246.5,255,193.9,255,193.9
	z"/>
<path class="st4" d="M253.4,263.6l17-4.7c0,0,3.1,21.7,6.2,21.7s-10.8,12.4-17.8,10.8c-7-1.6-17-7-17.8-10.8c-0.7-3.9,7-20.1,7-20.1
	L253.4,263.6z"/>
<path class="st9" d="M205.9,153.2c1.6-3.6,1.3-7.8,2.7-11.5c2.5-7.1,10.5-10.8,17.5-8.2c1.2,0.4,2.2,1,3.3,1.7
	c1.7,1.3,3.5,3,5.6,2.7c2.2-0.2,4.3-2.8,6.4-1.9c2.3,1,1.7,5.2,4,6.2c1.3,0.5,2.7-0.3,3.4-1.4c0.6-1.2,1-2.5,1-3.9
	c0.3-3.3,0.6-6.8-0.8-9.7c-0.6-1-1.2-2.1-1.6-3.2c-0.2-1-0.4-2.1-0.3-3.1c0-3.9-0.3-7.9-2.2-11.3c-2.2-3.7-6.2-6.1-10.4-7.1
	c-4.2-1-8.6-0.8-12.9-0.5c-7.1,0.6-14.5,1.9-20.1,6.2c-0.7,0.5-1.4,1.3-1.9,2c-0.4,1-0.8,1.9-1,3c-1.3,5-3,9.7-5.4,14.2
	c-1.2,1.9-2.1,3.9-2.8,6c-0.6,2.2-0.5,4.5,0.7,6.4c1,1.5,2.6,2.3,3.9,3.5c1.3,1.3,1.9,3.6,3.3,4.4c1.3,0.7,2.7,0.2,3.9,1.1
	C203.9,150,204.1,152.4,205.9,153.2z"/>
<path class="st0" d="M225.6,208.6l2.3-4.7c0,0,34,10,41,19.3c0,0,17-10.8,26.3-9.3l9.3,1.6l-28.6,25.6l-36.4-3.1L225.6,208.6z"/>
<path class="st3" d="M224,204l-31.7,44.1l45.7,22.4c0,0,4.2,2.3,7.6,0l30.3-13.9l28.6-41l-28.6,14.7c0,0-3.1-6.2-9.3-3.1L224,204z"
	/>
<path class="st8" d="M272.8,282.1l6.2-16.3c0,0,13.9-17.8,6.2-26.3c-7.7-8.5-16.3,24.7-16.3,24.7L272.8,282.1z"/>
<path class="st8" d="M201.4,279.6l13.5-11c0,0,20.9-8.5,18.6-19.7S207,262.1,207,262.1L201.4,279.6z"/>
<path class="st2" d="M168,201.2h-0.7c0,0-12-14.3-14.3,5.1c-2.4,19.4-10,83.6,10,85.9c20.1,2.3,34.5-9.7,34.5-9.7
	s14.7-22.4,9.3-22.4c-2.6,0-9.7-1.2-16.3-0.7c-7,0.4-13.1,2.4-12.8,0.4C178.3,255.8,189.6,206.7,168,201.2z"/>
<path class="st4" d="M166.8,186.1l-3.1-1.6c0,0-12.4,2.3-14.7,21.7c-2.3,19.4-10,83.6,10,85.9s47.2-3.1,47.2-3.1s5.4-29.4,0-29.4
	s-33.3,3.9-32.5,0C174.5,255.8,188.5,191.6,166.8,186.1z"/>
<polygon class="st4" points="261.5,273.2 270.1,260.1 275.5,281.7 261.5,287.9 "/>
<circle class="st0" cx="418.3" cy="80" r="35.1"/>
<rect x="61.5" y="221.4" class="st0" width="49.5" height="49.5"/>
<polygon class="st0" points="296.8,0 313.7,29.4 330.7,58.8 296.8,58.8 262.8,58.8 279.7,29.4 "/>
<g>
	<path class="st3" d="M78.5,229.5c0.4,0.6,0.8,1.1,1.3,1.6c2.1,2.6,4.1,5.4,6.2,7.9c1.3,1.6,3,2,5.1,1.6c3-0.7,4.1-4.3,2.1-7.1
		c-0.7-1-1.6-1.9-2.4-2.9c-2.2-2.5-4.3-5-6.5-7.4c1.2-1.4,2.3-2.8,3.5-4.1c1.7-1.9,3.4-3.9,5-5.9c1.4-1.8,1.3-3.9-0.1-5.4
		c-1.4-1.6-3.8-1.9-5.6-0.7c-0.9,0.6-1.7,1.5-2.4,2.3c-1.9,2.3-3.6,4.7-5.4,7.1c-0.1,0.2-0.3,0.4-0.5,0.7c-1-1.3-1.9-2.5-2.7-3.7
		c-1.3-1.8-2.6-3.6-4.1-5.2c-1.8-2-4.8-2.2-6.7-0.6c-1.8,1.6-1.9,4.2-0.3,6.4c0.5,0.7,1.2,1.4,1.7,2.1c2.2,2.5,4.3,5,6.5,7.5
		c-0.4,0.4-0.7,0.8-1,1.3c-2.5,2.9-4.9,5.8-7.4,8.7c-0.9,1.1-1.6,2.3-1.5,3.9c0.1,1.6,1,2.8,2.5,3.4c1.6,0.6,3.2,0.6,4.4-0.5
		c1.3-1.1,2.2-2.4,3.3-3.7C75.1,234,76.7,231.8,78.5,229.5z"/>
	<path class="st3" d="M28.2,251.1c-1.1-0.3-2.2-0.5-3.3-1c-3.1-1.2-5.5-3.3-7.3-6c-1.2-1.9-2.1-3.8-2.9-5.8
		c-0.8-2.2,0.2-4.5,2.4-5.3c2.1-0.7,4.2,0.3,5.2,2.5c0.7,1.7,1.6,3.4,2.7,4.9c0.6,0.8,1.6,1.6,2.6,2.1c1.9,1,4,0.6,5.3-1.1
		c1-1.3,1.9-2.6,2.2-4.1c3.3-13.3,6.6-26.7,9.8-40c0.1-0.2,0.1-0.4,0.1-0.7c-0.4,0-0.7,0-1.1,0c-3.6,0-7.3,0-10.9,0
		c-2.1,0-3.6-1.3-4-3.3c-0.4-1.8,0.4-3.7,2.2-4.4c0.7-0.3,1.5-0.4,2.2-0.4c4.2-0.1,8.3,0,12.6,0c0.3,0,0.7,0,1.1,0
		c0.7-2.7,1.4-5.5,2.1-8.2c1.3-4.8,2.6-9.4,4.8-13.8c1.6-3,3.4-5.9,6.3-7.7c5.6-3.6,12.6-2,16.2,3.6c1.6,2.5,2.5,5.3,3,8.3
		c0.3,2.5-1.2,4.4-3.6,4.8c-2.2,0.3-4-1.3-4.4-3.6c-0.3-1.9-0.7-3.7-1.9-5.3c-1.6-1.9-3.6-2-5.5-0.4c-1.6,1.3-2.4,3.1-3.3,4.9
		c-2.2,4.9-3.5,10-4.8,15.2c-0.2,0.7-0.4,1.6-0.6,2.5c0.4,0,0.7,0,1.1,0c2.9,0,5.8,0,8.7,0c1.8,0,3.1,0.8,3.8,2.5
		c0.7,1.6,0.4,3-0.7,4.2c-0.8,1-2,1.3-3.3,1.3c-3.6,0-7.1,0-10.6,0c-0.7,0-1,0.2-1.2,1c-3.4,14-6.8,28-10.3,42
		c-1.3,5-4,8.8-8.8,10.8c-0.9,0.4-1.9,0.5-3,0.8C30.3,251.1,29.3,251.1,28.2,251.1z"/>
</g>
<g>
	<path class="st3" d="M506.2,77.9c-0.2,0.8-0.4,1.8-0.7,2.6c-1.4,3.5-4.8,5.7-8.8,5.7c-5.6,0-11.2,0-16.9,0c-0.8,0-1.2,0.2-1.3,1.1
		c-2.2,11.3-3.6,22.6-3.3,34.1c0.1,6.1,0.7,12.2,3.3,17.9c1.1,2.5,2.5,4.9,4.9,6.5c3.3,2.3,6.8,2.2,10.3,0.4
		c1.2-0.6,2.3-1.4,3.3-2.3c2.4-1.9,3-4.7,2.9-7.6c0-0.1-0.1-0.2,0-0.4c0-0.7-0.3-1.6,0.4-1.9c0.8-0.4,1.6,0.1,2.2,0.6
		c1.7,1.5,2.6,3.3,3.2,5.5c1.2,5.2,0.1,9.9-3,14.2c-5.6,8.1-17.4,12-26.7,9c-5.7-1.9-9.4-5.9-11.8-11.4c-1.6-3.9-2.2-7.9-2.6-12
		c-1.3-10.5-1.2-20.9-0.7-31.3c0.3-7.3,1-14.6,1.4-21.8c0-0.1,0-0.1-0.1-0.3c-5.5,0-11.1,0-16.6,0c0,0.2-0.1,0.5-0.1,0.7
		c0.4,16.3,0.8,32.4,1.3,48.7c0.1,5.3-0.1,10.6-1.9,15.7c-1.3,3.8-3.2,7.3-6.3,9.8c-3.4,2.7-8.2,3-11.8,0.4
		c-3.4-2.2-5.8-5.2-6.1-9.4c-0.2-2.5,0.1-5.1,1.1-7.4c1.6-3.9,3.2-7.7,5.1-11.5c2.2-4.3,3.2-8.9,3.8-13.6c1.1-8.5,1.3-16.9,1-25.4
		c-0.1-2.5-0.4-5.1-0.6-7.6c-0.1-0.5-0.3-0.9-0.8-0.9c-2.2,0-4.5-0.1-6.8,0.1c-5.1,0.7-9.9,2.6-14.7,4.6c-1.3,0.5-2.6,1-3.9,1.4
		c-0.4,0.1-1,0.1-1.4,0.1c-1,0-1.4-0.5-1.3-1.5c0.1-0.7,0.3-1.5,0.7-2.1c4.1-6.9,8.8-13.2,15.2-18.2c4-3.1,8.5-4.8,13.7-4.8
		c21.6,0.1,43.2,0.1,64.8,0.1c5.5,0,8.5,2.5,9.4,7.9c0,0.1,0.1,0.3,0.1,0.4C506.2,75.5,506.2,76.7,506.2,77.9z"/>
</g>
<g>
	<path class="st3" d="M239.1,81.7c-1.4-0.4-2.6-1.1-3.3-2.5c-0.8-1.6-0.6-3.6,0.6-5c0.2-0.2,0.4-0.4,0.7-0.7
		c8.1-8.2,16.3-16.4,24.4-24.5c0.1-0.1,0.4-0.3,0.7-0.4c-1.5-1.7-2.8-3.3-4.1-4.9c-7.1-8.4-14.1-16.7-21.2-25c-2-2.4-1.6-5.1,0-6.6
		c0.7-0.7,1.8-1.2,2.9-1.3c0.2,0,0.4,0,0.6,0c18.9,0,37.7,0,56.5,0c2,0,3.6,0.7,4.4,2.5c0.3,0.5,0.4,1.3,0.4,1.9
		c0,2.7,0.1,5.5-0.1,8.2c-0.1,2.2-2.2,3.9-4.4,3.9s-4.2-1.7-4.4-3.9c-0.1-1.2,0-2.4,0-3.6c-14.4,0-28.6,0-43,0
		c0.2,0.2,0.4,0.4,0.5,0.6c7.1,8.2,14.1,16.6,21.1,24.7c1.9,2.2,1.8,4.6-0.2,6.8c-6.6,6.7-13.1,13.2-19.8,19.9
		c-0.1,0.1-0.4,0.2-0.7,0.4c0.1,0.1,0.1,0.1,0.2,0.3c13.8,0,27.7,0,41.7,0c0-0.3,0-0.5,0-0.7c0-2.6,0-5.3,0-7.9c0-2.2,1.1-3.9,3-4.5
		c3-1.1,6,1,6.1,4.3c0.1,4.4,0.1,8.8,0,13.3c0,2.4-1.1,3.7-3.8,4.6C278.3,81.7,258.7,81.7,239.1,81.7z"/>
</g>
<g>
	<path class="st3" d="M442.9,227.9c-0.3,0.5-0.4,1.2-0.8,1.7c-1,1.4-2.4,1.9-4.1,1.9c-6.3,0-12.7,0-19.1,0c-0.7,0-1.1,0.2-1.4,0.8
		c-8.9,19.1-17.8,38.2-26.7,57.3c-1.2,2.4-3.1,3.5-5.3,3c-1.3-0.3-2.2-1.1-3-2.1c-4.5-5.9-9.1-11.7-13.5-17.5
		c-0.4-0.5-0.8-0.7-1.6-0.7c-1.5,0.1-3,0-4.2-1c-1.4-1.2-2-3-1.5-4.8c0.5-1.8,2.1-3.1,3.9-3.2c1.7-0.1,3.5-0.1,5.2,0
		c1.5,0.1,2.6,0.8,3.6,2c3.5,4.5,7.1,9.1,10.5,13.7c0.1,0.2,0.3,0.4,0.5,0.7c0.1-0.3,0.3-0.5,0.4-0.7c8.2-17.8,16.6-35.4,24.8-53.1
		c1-2.2,2.6-3.3,5.1-3.3c7.1,0.1,14.3,0.1,21.2,0c2.9-0.1,5,0.8,5.9,3.7C442.9,226.7,442.9,227.3,442.9,227.9z"/>
</g>
<g>
	<path class="st3" d="M142.8,27.1c1.3,0.4,2.5,0.6,3.6,1.2c3.3,1.4,5.4,3.9,6.7,7.1c0.8,2.1,1.4,4.3,1.8,6.6c0.4,2.5-1.5,5-3.9,5.3
		c-2.6,0.4-5.1-1.2-5.6-3.7c-0.3-1.5-0.7-3-1.2-4.3c-0.1-0.4-0.4-0.7-0.5-1c-1.3-1.7-3-1.9-4.5-0.4c-1.5,1.4-2.3,3.2-3.1,5.1
		c-2.2,5.1-3.6,10.5-4.9,15.9c-4.3,17.5-8.6,35.1-12.9,52.5c-1.1,4.5-3.6,8.2-7.6,10.8c-4.8,2.9-11,2.2-15.5-1.4
		c-3.6-3-5.9-6.7-7.1-11.2c-0.6-2.4,1-4.8,3.4-5.5s4.9,0.5,5.8,2.8c0.5,1.3,1,2.5,1.7,3.6c0.7,1.1,1.6,2.1,2.6,2.9
		c1.9,1.4,4.1,1.1,5.4-0.8c0.7-1.1,1.5-2.3,1.8-3.6c5-19.8,9.8-39.7,14.8-59.5c1.3-4.8,2.8-9.5,5.3-13.8c1.9-3.3,4.3-6,8-7.4
		c1-0.4,2-0.5,3.1-0.7C140.9,27.1,142,27.1,142.8,27.1z"/>
</g>
</svg>
